<svg xmlns="http://www.w3.org/2000/svg" xmlns:xlink="http://www.w3.org/1999/xlink" width="600" height="400" viewBox="0 0 600 400"><rect width="100%" height="100%" fill="#DDDDDD"/><path d="M160.91 160.70L171.22 160.70L171.22 223.60L165.22 223.60Q163.82 223.60 162.89 223.14Q161.95 222.69 161.08 221.60L161.08 221.60L128.24 179.66Q128.50 182.53 128.50 184.97L128.50 184.97L128.50 223.60L118.19 223.60L118.19 160.70L124.33 160.70Q125.06 160.70 125.61 160.76Q126.15 160.83 126.57 161.02Q126.98 161.22 127.37 161.59Q127.76 161.96 128.24 162.57L128.24 162.57L161.21 204.68Q161.08 203.15 161.00 201.67Q160.91 200.20 160.91 198.93L160.91 198.93L160.91 160.70ZM203.28 178.27L203.28 178.27Q208.24 178.27 212.30 179.88Q216.37 181.49 219.26 184.45Q222.16 187.41 223.72 191.67Q225.29 195.93 225.29 201.20L225.29 201.20Q225.29 206.50 223.72 210.77Q222.16 215.03 219.26 218.03Q216.37 221.03 212.30 222.64Q208.24 224.25 203.28 224.25L203.28 224.25Q198.28 224.25 194.19 222.64Q190.10 221.03 187.20 218.03Q184.31 215.03 182.72 210.77Q181.14 206.50 181.14 201.20L181.14 201.20Q181.14 195.93 182.72 191.67Q184.31 187.41 187.20 184.45Q190.10 181.49 194.19 179.88Q198.28 178.27 203.28 178.27ZM203.28 215.99L203.28 215.99Q208.85 215.99 211.52 212.25Q214.20 208.50 214.20 201.28L214.20 201.28Q214.20 194.06 211.52 190.28Q208.85 186.49 203.28 186.49L203.28 186.49Q197.62 186.49 194.90 190.30Q192.19 194.11 192.19 201.28L192.19 201.28Q192.19 208.46 194.90 212.22Q197.62 215.99 203.28 215.99ZM268.09 160.70L268.09 223.60L256.35 223.60L256.35 160.70L268.09 160.70ZM291.19 223.60L280.45 223.60L280.45 178.97L287.02 178.97Q289.10 178.97 289.76 180.93L289.76 180.93L290.45 184.23Q291.63 182.93 292.91 181.84Q294.19 180.75 295.65 179.97Q297.11 179.19 298.78 178.73Q300.46 178.27 302.46 178.27L302.46 178.27Q306.68 178.27 309.40 180.56Q312.11 182.84 313.46 186.62L313.46 186.62Q314.51 184.41 316.07 182.82Q317.64 181.23 319.51 180.23Q321.38 179.23 323.49 178.75Q325.60 178.27 327.73 178.27L327.73 178.27Q331.43 178.27 334.30 179.40Q337.17 180.53 339.13 182.71Q341.09 184.88 342.11 188.02Q343.13 191.15 343.13 195.19L343.13 195.19L343.13 223.60L332.39 223.60L332.39 195.19Q332.39 190.93 330.52 188.78Q328.64 186.62 325.03 186.62L325.03 186.62Q323.38 186.62 321.97 187.19Q320.55 187.75 319.49 188.82Q318.42 189.89 317.81 191.50Q317.20 193.11 317.20 195.19L317.20 195.19L317.20 223.60L306.42 223.60L306.42 195.19Q306.42 190.71 304.61 188.67Q302.81 186.62 299.33 186.62L299.33 186.62Q296.98 186.62 294.95 187.78Q292.93 188.93 291.19 190.93L291.19 190.93L291.19 223.60ZM376.89 212.07L376.89 204.55Q372.23 204.76 369.06 205.35Q365.88 205.94 363.97 206.85Q362.05 207.76 361.23 208.98Q360.40 210.20 360.40 211.64L360.40 211.64Q360.40 214.46 362.07 215.68Q363.75 216.90 366.45 216.90L366.45 216.90Q369.75 216.90 372.17 215.70Q374.58 214.51 376.89 212.07L376.89 212.07ZM354.18 188.62L352.27 185.19Q359.96 178.14 370.80 178.14L370.80 178.14Q374.71 178.14 377.80 179.42Q380.89 180.71 383.02 182.99Q385.15 185.28 386.26 188.45Q387.37 191.63 387.37 195.41L387.37 195.41L387.37 223.60L382.50 223.60Q380.98 223.60 380.15 223.14Q379.32 222.69 378.84 221.29L378.84 221.29L377.89 218.07Q376.19 219.60 374.58 220.75Q372.97 221.90 371.23 222.69Q369.49 223.47 367.51 223.88Q365.53 224.29 363.14 224.29L363.14 224.29Q360.31 224.29 357.92 223.53Q355.53 222.77 353.79 221.25Q352.05 219.73 351.09 217.47Q350.13 215.20 350.13 212.20L350.13 212.20Q350.13 210.51 350.70 208.83Q351.26 207.16 352.55 205.63Q353.83 204.11 355.88 202.76Q357.92 201.41 360.90 200.41Q363.88 199.41 367.84 198.78Q371.80 198.15 376.89 198.02L376.89 198.02L376.89 195.41Q376.89 190.93 374.97 188.78Q373.06 186.62 369.45 186.62L369.45 186.62Q366.84 186.62 365.12 187.23Q363.40 187.84 362.10 188.60Q360.79 189.36 359.73 189.97Q358.66 190.58 357.35 190.58L357.35 190.58Q356.22 190.58 355.44 190.00Q354.66 189.41 354.18 188.62L354.18 188.62ZM413.77 200.20L413.77 200.20Q415.78 200.20 417.25 199.65Q418.73 199.11 419.71 198.15Q420.69 197.19 421.19 195.85Q421.69 194.50 421.69 192.89L421.69 192.89Q421.69 189.58 419.71 187.65Q417.73 185.71 413.77 185.71L413.77 185.71Q409.82 185.71 407.84 187.65Q405.86 189.58 405.86 192.89L405.86 192.89Q405.86 194.45 406.36 195.80Q406.86 197.15 407.84 198.13Q408.82 199.11 410.32 199.65Q411.82 200.20 413.77 200.20ZM425.91 225.60L425.91 225.60Q425.91 224.29 425.13 223.47Q424.34 222.64 423.00 222.19Q421.65 221.73 419.84 221.51Q418.04 221.29 416.01 221.18Q413.99 221.08 411.84 220.99Q409.69 220.90 407.64 220.64L407.64 220.64Q405.86 221.64 404.75 222.99Q403.64 224.34 403.64 226.12L403.64 226.12Q403.64 227.30 404.23 228.32Q404.81 229.34 406.10 230.08Q407.38 230.82 409.42 231.23Q411.47 231.65 414.43 231.65L414.43 231.65Q417.43 231.65 419.60 231.19Q421.78 230.73 423.19 229.93Q424.61 229.12 425.26 228.01Q425.91 226.90 425.91 225.60ZM423.78 180.49L436.61 180.49L436.61 184.49Q436.61 186.41 434.31 186.84L434.31 186.84L430.30 187.58Q431.22 189.89 431.22 192.63L431.22 192.63Q431.22 195.93 429.89 198.61Q428.56 201.28 426.22 203.15Q423.87 205.02 420.67 206.05Q417.47 207.07 413.77 207.07L413.77 207.07Q412.47 207.07 411.25 206.94Q410.03 206.81 408.86 206.59L408.86 206.59Q406.77 207.85 406.77 209.42L406.77 209.42Q406.77 210.77 408.01 211.40Q409.25 212.03 411.29 212.29Q413.34 212.55 415.95 212.62Q418.56 212.68 421.30 212.90Q424.04 213.12 426.65 213.66Q429.26 214.20 431.30 215.38Q433.35 216.55 434.59 218.57Q435.83 220.60 435.83 223.77L435.83 223.77Q435.83 226.73 434.37 229.51Q432.91 232.30 430.15 234.47Q427.39 236.65 423.37 237.98Q419.34 239.30 414.21 239.30L414.21 239.30Q409.16 239.30 405.42 238.32Q401.68 237.34 399.20 235.71Q396.72 234.08 395.50 231.95Q394.29 229.82 394.29 227.51L394.29 227.51Q394.29 224.38 396.18 222.27Q398.07 220.16 401.38 218.90L401.38 218.90Q399.59 217.99 398.55 216.46Q397.51 214.94 397.51 212.46L397.51 212.46Q397.51 211.46 397.88 210.40Q398.24 209.33 398.96 208.29Q399.68 207.24 400.77 206.31Q401.86 205.37 403.33 204.63L403.33 204.63Q399.94 202.81 398.01 199.76Q396.07 196.72 396.07 192.63L396.07 192.63Q396.07 189.32 397.40 186.65Q398.72 183.97 401.09 182.08Q403.46 180.19 406.71 179.19Q409.95 178.18 413.77 178.18L413.77 178.18Q416.65 178.18 419.17 178.77Q421.69 179.36 423.78 180.49L423.78 180.49ZM451.88 196.15L472.15 196.15Q472.15 194.06 471.56 192.21Q470.98 190.36 469.80 188.97Q468.63 187.58 466.82 186.78Q465.02 185.97 462.62 185.97L462.62 185.97Q457.97 185.97 455.30 188.62Q452.62 191.28 451.88 196.15L451.88 196.15ZM479.29 202.63L451.66 202.63Q451.92 206.07 452.88 208.57Q453.84 211.07 455.40 212.70Q456.97 214.33 459.12 215.14Q461.28 215.94 463.89 215.94L463.89 215.94Q466.50 215.94 468.39 215.33Q470.28 214.72 471.69 213.99Q473.11 213.25 474.17 212.64Q475.24 212.03 476.24 212.03L476.24 212.03Q477.59 212.03 478.24 213.03L478.24 213.03L481.33 216.94Q479.55 219.03 477.33 220.44Q475.11 221.86 472.70 222.71Q470.28 223.56 467.78 223.90Q465.28 224.25 462.93 224.25L462.93 224.25Q458.27 224.25 454.27 222.71Q450.27 221.16 447.31 218.14Q444.35 215.12 442.66 210.66Q440.96 206.20 440.96 200.33L440.96 200.33Q440.96 195.76 442.44 191.73Q443.92 187.71 446.68 184.73Q449.44 181.75 453.42 180.01Q457.40 178.27 462.41 178.27L462.41 178.27Q466.63 178.27 470.19 179.62Q473.76 180.97 476.33 183.56Q478.89 186.15 480.35 189.91Q481.81 193.67 481.81 198.50L481.81 198.50Q481.81 200.94 481.29 201.78Q480.76 202.63 479.29 202.63L479.29 202.63Z" fill="#999999"/></svg>